<?xml version="1.0" encoding="utf-8"?>
<!-- Generator: Adobe Illustrator 21.1.0, SVG Export Plug-In . SVG Version: 6.00 Build 0)  -->
<svg version="1.1"
	 id="svg3320" inkscape:version="0.48.3.1 r9886" sodipodi:docname="splash.svg.in" xmlns:cc="http://creativecommons.org/ns#" xmlns:dc="http://purl.org/dc/elements/1.1/" xmlns:inkscape="http://www.inkscape.org/namespaces/inkscape" xmlns:rdf="http://www.w3.org/1999/02/22-rdf-syntax-ns#" xmlns:sodipodi="http://sodipodi.sourceforge.net/DTD/sodipodi-0.dtd" xmlns:svg="http://www.w3.org/2000/svg"
	 xmlns="http://www.w3.org/2000/svg" xmlns:xlink="http://www.w3.org/1999/xlink" x="0px" y="0px" viewBox="0 0 640 480"
	 style="enable-background:new 0 0 640 480;" xml:space="preserve">
<style type="text/css">
	.st0{fill:url(#SVGID_1_);}
	.st1{fill:#E6E6E6;}
	.st2{font-family:'Arial-BoldMT';}
	.st3{font-size:14px;}
	.st4{fill:none;}
	.st5{fill:#ECEFE8;}
	.st6{fill:#FFFFFF;}
	.st7{fill:#75AD0A;}
	.st8{fill:#D788FF;}
</style>
<g id="gradient">
	
		<radialGradient id="SVGID_1_" cx="997.5153" cy="157.8248" r="777.836" fx="916.4199" fy="162.2105" gradientTransform="matrix(1.1643 0 0 1.1024 -512.9698 -121.015)" gradientUnits="userSpaceOnUse">
		<stop  offset="0" style="stop-color:#073246"/>
		<stop  offset="0.4409" style="stop-color:#489291"/>
		<stop  offset="0.9891" style="stop-color:#063246"/>
	</radialGradient>
	<rect x="-139.7" class="st0" width="876" height="480"/>
</g>
<defs>
	
	
		<inkscape:perspective  id="perspective47" inkscape:persp3d-origin="24 : 16 : 1" inkscape:vp_x="0 : 24 : 1" inkscape:vp_y="0 : 1000 : 0" inkscape:vp_z="48 : 24 : 1" sodipodi:type="inkscape:persp3d">
		</inkscape:perspective>
</defs>
<sodipodi:namedview  bordercolor="#666666" borderopacity="1.0" id="base" inkscape:current-layer="layer1" inkscape:cx="574.36733" inkscape:cy="250.84337" inkscape:document-units="px" inkscape:pageopacity="0.0" inkscape:pageshadow="2" inkscape:window-height="570" inkscape:window-maximized="0" inkscape:window-width="1016" inkscape:window-x="183" inkscape:window-y="114" inkscape:zoom="0.775" pagecolor="#ffffff" showgrid="false">
	</sodipodi:namedview>
<g>
	<text transform="matrix(1 0 0 1 417.0711 54.8724)" class="st1 st2 st3">MateriApps LIVE! @MA_VERSION@</text>
	<text transform="matrix(1 0 0 1 417.0711 70.8724)" class="st1 st2 st3">@PROJECT@</text>
	<text transform="matrix(1 0 0 1 417.0711 86.8724)" class="st1 st2 st3">Build: @YEAR@-@MONTH@-@DAY@ @HOUR@:@MINUTE@:@SECOND@</text>
</g>
<g id="g3306" transform="matrix(0.89520519,0,0,0.98121973,-29.298668,560.89799)">
	<path id="path3204" inkscape:connector-curvature="0" class="st4" d="M192.6-494.8c-1.3-1.9-3-3-5-3.4c-2.1-0.3-3.7,0.3-5,1.7
		c-1.2,1.4-1.8,3.3-1.8,5.7s0.6,4.6,1.8,6.4c0.5,0.7,1,1.4,1.7,1.9c1.8-0.2,3.6-0.4,5.4-0.7c1.2-0.2,2.4-0.3,3.7-0.5
		c0.7-1.3,1.2-2.9,1.2-4.9C194.6-490.8,193.9-493,192.6-494.8L192.6-494.8z"/>
	<polygon id="polygon3206" class="st4" points="154.2,-495.9 162.2,-494.6 158.2,-508.2 	"/>
	<path id="path3208" inkscape:connector-curvature="0" class="st4" d="M217.7-493.5c-2.3-0.4-4.2,0.2-5.7,1.8
		c-1.3,1.4-2,3.3-2.1,5.7c3.6-0.7,7.3-1.4,10.9-2.3c1-0.3,2.1-0.5,3-0.7c-0.2-0.3-0.4-0.6-0.5-0.7
		C221.9-491.9,220-493.1,217.7-493.5L217.7-493.5z"/>
	<path id="path3210" inkscape:connector-curvature="0" class="st5" d="M83.6-478.5c-18.9-4.4-30.4-6.7-30.4-6.3
		c0,0.6,12.3,4.1,32.6,9.5c-0.6-0.5-1-1.1-1.5-1.9C84-477.5,83.8-478,83.6-478.5z"/>
	<path id="path3212" inkscape:connector-curvature="0" class="st6" d="M174.9-466.8l6.1,1.4v-12c-2.1,0.2-4.1,0.4-6.1,0.6V-466.8z"
		/>
	<path id="path3214" inkscape:connector-curvature="0" class="st6" d="M197.9-498.7c-2.3-3.5-5.3-5.6-9-6.1
		c-3.1-0.5-5.7,0.6-7.9,2.9v-3.2l-6.1-0.8v24.5c3.1-0.3,6.2-0.6,9.3-0.9c-0.7-0.6-1.2-1.1-1.7-1.9c-1.2-1.9-1.8-4-1.8-6.4
		s0.6-4.4,1.8-5.7c1.3-1.4,3-2.1,5-1.7c2.1,0.3,3.7,1.4,5,3.4c1.3,1.9,1.9,4,1.9,6.4c0,2-0.4,3.5-1.2,4.9c2.5-0.4,5.1-0.7,7.7-1.1
		c0.1-0.8,0.2-1.7,0.2-2.5C201.2-491.5,200.1-495.4,197.9-498.7L197.9-498.7z"/>
	<path id="path3216" inkscape:connector-curvature="0" class="st6" d="M182.3-477.7c2,2.1,4.1,3.4,6.4,3.8c3.5,0.7,6.5-0.3,9-3
		c0.8-0.9,1.5-2,2-3.1c-3.1,0.5-6.1,0.8-9.1,1.2C187.9-478.2,185.1-477.9,182.3-477.7L182.3-477.7z"/>
	<path id="path3218" inkscape:connector-curvature="0" class="st6" d="M219.1-500.6c-3.5-0.5-6.4,0.6-9,3v-3.4l-6.8-0.9v17.1
		c2.1-0.4,4.4-0.7,6.5-1.1c0.1-2.4,0.7-4.3,2.1-5.7c1.4-1.5,3.4-2.1,5.7-1.8c2.3,0.4,4.3,1.6,5.7,3.6c0.2,0.3,0.4,0.5,0.5,0.7
		c2.3-0.7,4.7-1.3,7.1-2.1c-0.5-1-1-2-1.7-2.9C226.6-497.9,223.3-500.1,219.1-500.6L219.1-500.6z"/>
	<path id="path3220" inkscape:connector-curvature="0" class="st6" d="M235.6-492.8c0.6-0.2,1.1-0.4,1.6-0.7c2.6-1,5.1-2.2,7.5-3.6
		c-2.6-0.3-4.9,0.2-6.7,1.5C236.8-494.7,236-493.9,235.6-492.8z"/>
	<path id="path3222" inkscape:connector-curvature="0" class="st7" d="M106.4-513.3c0.1-0.1,0.1-0.2,0.2-0.3s0.2-0.2,0.2-0.3
		c-0.3,0-0.7,0.1-0.9,0.2v0.5C106.1-513.2,106.3-513.2,106.4-513.3z"/>
	<path id="path3224" inkscape:connector-curvature="0" class="st7" d="M82.9-482.5c-3.1-0.6-6.1-1.2-9-2c-3-0.7-5.9-1.7-8.7-3
		c-1.4-0.7-2.8-1.3-4-2.3c-0.7-0.5-1.3-1-1.8-1.7c-0.6-0.7-1-1.5-1.1-2.3s0.2-1.7,0.6-2.4c0.4-0.7,0.9-1.3,1.4-1.9
		c1-1,2.2-1.9,3.5-2.6l-0.2-1.1l0,0c-1.3,0.7-2.5,1.6-3.6,2.7c-0.6,0.6-1.1,1.2-1.6,2c-0.2,0.4-0.5,0.8-0.6,1.4
		c-0.2,0.6-0.2,1.2-0.2,1.9c0.1,0.7,0.3,1.3,0.6,1.9s0.6,0.9,0.8,1.4c0.7,0.7,1.3,1.4,2,1.9c1.4,1,2.8,1.8,4.2,2.4
		c2.9,1.3,5.8,2.3,8.8,3.2c3,0.8,6.1,1.6,9.1,2.1C83-481.6,83-482,82.9-482.5C82.9-482.4,82.9-482.5,82.9-482.5L82.9-482.5z"/>
	<path id="path3226" inkscape:connector-curvature="0" class="st7" d="M71.5-505.5c-0.5,0.2-0.8,0.4-1.3,0.5l-0.3,1.1
		c0.6-0.3,1.2-0.5,1.8-0.7c0.3-0.1,0.7-0.3,0.9-0.4l-0.1-0.9C72.2-505.7,71.9-505.6,71.5-505.5z"/>
	<path id="path3228" inkscape:connector-curvature="0" class="st7" d="M131.5-516.5c1.5-0.2,3.1-0.3,4.7-0.4c0-0.1,0-0.1,0-0.2
		c-1.6,0.1-3.1,0.3-4.7,0.4c-4.7,0.4-9.1,0.8-13.6,1.4c0.2,0.1,0.3,0.2,0.5,0.3C122.6-515.5,127-516,131.5-516.5z"/>
	<path id="path3230" inkscape:connector-curvature="0" class="st7" d="M251.7-502.6L251.7-502.6c-0.2-1-0.7-1.9-1.2-2.6
		c-0.6-0.7-1.3-1.4-2-2c-1.4-1.1-3-1.9-4.5-2.6c-3.1-1.4-6.2-2.3-9.2-3.2c-6.1-1.6-11.9-2.5-17.8-3.3c-11.2-1.4-21.9-2.1-32.2-2.2
		c-9.7-0.3-19.1-0.1-28,0.2c-0.1,0-0.2,0-0.3,0c-0.5,0-0.9,0-1.4,0.1c-3.5,0.1-6.9,0.3-10.3,0.6c0,0.1,0,0.1,0,0.2
		c3.4-0.2,6.7-0.4,10.2-0.6c0.9,0,1.9-0.1,2.8-0.1c8.6-0.3,17.6-0.3,27,0c10.3,0.4,21,1,32.2,2.6c5.8,0.8,11.7,1.9,17.6,3.5
		c3,0.8,6.1,1.8,9.1,3.2c1.5,0.7,3,1.5,4.2,2.5c1.3,1,2.4,2.3,2.7,3.8c0.2,1.5-0.5,2.9-1.5,3.9c-0.7,0.7-1.4,1.4-2.2,2.1
		c-0.4,0.3-0.7,0.6-1.1,0.8c-2.5,1.6-5.2,2.8-8,3.9c-0.9,0.4-2,0.7-2.9,1c-1.1,0.4-2.2,0.7-3.4,1.1c-2.3,0.7-4.7,1.4-7,2
		c-1.1,0.3-2.1,0.6-3.3,0.8c-3.8,0.9-7.6,1.7-11.3,2.3c-1.6,0.3-3.2,0.6-4.8,0.8c-0.7,0.1-1.2,0.2-1.9,0.3c-0.8,0.1-1.7,0.3-2.6,0.4
		c-2.9,0.4-5.7,0.7-8.6,1.1c-0.7,0.1-1.6,0.2-2.3,0.3c-1.4,0.2-2.8,0.3-4.1,0.5c-3.6,0.4-7.3,0.7-10.9,1c-0.8,0.1-1.7,0.1-2.5,0.2
		c-2,0.2-3.8,0.3-5.8,0.4c-1.7,0.1-3.4,0.2-4.9,0.3c-8.8,0.5-17.3,0.7-25.4,0.7c-15.5,0.1-30-0.6-43.6-2.2c-0.1,0-0.1,0-0.2,0
		c0,0.4,0.1,0.7,0.1,1s0,0.7,0,0.9c0.1,0,0.2,0,0.3,0c6.7,0.9,13.6,1.6,20.8,2.1c7.4,0.5,15,0.7,23,0.7c11.4,0,23.3-0.5,35.8-1.5
		c0.3,0,0.5,0,0.7-0.1c0.7-0.1,1.2-0.1,1.9-0.2c2.1-0.2,4-0.4,6.1-0.6c0.1,0,0.3,0,0.4,0c3-0.3,6-0.7,9.1-1c3.3-0.5,6.5-0.9,9.9-1.4
		c1-0.2,2.1-0.4,3.1-0.6c2.2-0.4,4.6-0.8,6.8-1.2c3.8-0.7,7.7-1.6,11.6-2.5c1.1-0.3,2.1-0.6,3.3-0.8c2.3-0.7,4.7-1.3,7-2.1
		c0.9-0.3,1.9-0.7,2.7-0.9c1.2-0.5,2.4-0.8,3.6-1.3c2.8-1.1,5.5-2.4,8.1-4.1c0.7-0.5,1.3-0.8,1.9-1.4c0.7-0.5,1.2-1,1.7-1.7
		c0.6-0.7,1-1.3,1.3-2.1C251.7-500.7,251.9-501.6,251.7-502.6L251.7-502.6z"/>
	<polygon id="polygon3232" class="st6" points="73.2,-507.6 73.2,-507.6 72.1,-517.2 69.6,-506.3 69.6,-506.3 72.1,-517.2 	"/>
	<polygon id="rect3234" class="st6" points="64.4,-501.1 64.8,-499.7 64.8,-499.7 	"/>
	<polygon id="rect3236" class="st6" points="63.9,-503.5 64.2,-502.1 64.2,-502.1 	"/>
	<rect id="rect3238" x="69.4" y="-506.3" class="st6" width="0" height="1.8"/>
	<rect id="rect3240" x="64.3" y="-502.1" class="st6" width="0" height="1.1"/>
	<path id="path3242" inkscape:connector-curvature="0" class="st7" d="M89.8-510.6L89.8-510.6c-0.2,0-0.4,0.1-0.6,0.1
		c-0.1,0-0.3,0.1-0.4,0.1c-2,0.5-3.9,0.9-5.9,1.4c-0.3,0.1-0.6,0.2-0.9,0.3c0,0.3,0,0.6,0,0.7c0.3-0.1,0.6-0.2,0.8-0.3
		c2.1-0.6,4.1-1.1,6.3-1.6c0.1,0,0.2,0,0.2-0.1c0.2-0.1,0.5-0.1,0.7-0.2l0,0C90-510.2,89.9-510.4,89.8-510.6z"/>
	<rect id="rect3244" x="100.2" y="-494.6" class="st6" width="0" height="4.4"/>
	<path id="polygon3246" class="st6" d="M136.3-511.5L136.3-511.5L136.3-511.5z"/>
	<path id="polygon3248" class="st6" d="M136.3-511.5L136.3-511.5L136.3-511.5z"/>
	<path id="path3250" inkscape:connector-curvature="0" class="st6" d="M161.6-516.1c-1.6,0-3.3,0.1-4.9,0.2c-0.8,0-1.6,0.1-2.4,0.1
		l-10.2,31.7l-0.2,0.6h0.2l5.5,1.1l2.4-7.1l12.3,2.2l1.9,6.4c1.9-0.1,3.8-0.3,5.8-0.4L161.6-516.1z M154.2-495.9l4-12.2l4,13.6
		L154.2-495.9z"/>
	<polygon id="rect3252" class="st6" points="143.1,-483.8 137.9,-484.8 137.9,-484.8 	"/>
	<polygon id="polygon3254" class="st6" points="64.8,-499.7 64.8,-499.7 64.8,-499.6 67.9,-498.9 68.6,-501.6 69,-503.4 
		69.3,-504.5 69.3,-504.5 69.6,-506.3 72.1,-517.2 73.2,-507.6 73.4,-506.1 73.5,-505.2 73.6,-503.6 74.3,-497.6 78,-496.9 
		78,-496.9 77.2,-504.8 77,-506.4 76.9,-507.2 76.7,-508.8 74.7,-528.1 70.9,-528.6 66.4,-508.3 62,-529.6 58.5,-530.1 55.3,-501.5 
		55.3,-501.5 58.7,-500.8 60.8,-519 63.9,-503.5 64.2,-502.1 64.4,-501.1 	"/>
	<path id="path3256" inkscape:connector-curvature="0" class="st6" d="M90.5-518L90.5-518v0.8v1.8c-0.3-0.5-0.6-0.8-0.8-1.3
		c-1.2-1.6-2.6-2.4-4.2-2.6c-2.2-0.3-4,0.7-5.3,3c-1.1,1.9-1.8,4.2-1.9,7c0,0.4,0,0.7,0,1.1l0,0l0,0c0,0.2,0,0.4,0,0.6
		c0,0.3,0,0.6,0,0.8c0,0.6,0.1,1.1,0.2,1.6c0.3,2.1,0.9,3.9,1.8,5.7c1.4,2.7,3.2,4.3,5.4,4.8c1.4,0.3,2.8-0.1,4-1.2
		c0.3-0.3,0.6-0.6,0.8-0.9v1.7v0.7l0,0l4.1,0.8l0,0v-15.7v-1.9v-0.6v-1.9v-2.6v-1.3l0,0C94.6-517.4,90.5-518,90.5-518z M90.3-500.5
		L90.3-500.5c-1,1.5-2.3,2.1-3.9,1.8c-1.5-0.3-2.8-1.4-3.7-3.2c-0.7-1.2-1-2.6-1.2-4.1c-0.1-0.6-0.1-1.1-0.1-1.7c0,0,0,0,0-0.1
		c0-0.3,0-0.5,0-0.7c0-0.7,0.1-1.2,0.2-1.8c0.2-1.1,0.6-2.1,1.1-2.9c0.9-1.5,2.2-2.1,3.7-1.9c1.4,0.2,2.6,1.1,3.6,2.5
		c0.1,0.1,0.2,0.3,0.3,0.4c0.2,0.4,0.4,0.8,0.6,1.2c0.1,0.2,0.2,0.4,0.2,0.6c0.2,0.6,0.4,1.1,0.5,1.7c0.2,0.8,0.2,1.7,0.2,2.5
		C91.7-503.8,91.2-501.8,90.3-500.5z"/>
	<polygon id="polygon3258" class="st6" points="105,-510.6 105,-510.6 105,-511.1 105,-513 105,-513.5 105,-514.6 105,-515.5 
		105,-515.9 105,-515.9 102.4,-516.3 102.4,-525.3 102.4,-525.3 98.1,-525.7 98.1,-525.7 98.1,-516.9 95.9,-517.2 95.9,-517.2 
		95.9,-513.8 95.9,-512 95.9,-512 96.2,-512 97.8,-511.7 98.1,-511.7 98.1,-509.9 98.1,-492.9 102.4,-492 102.4,-510.7 
		102.4,-511.1 103.5,-510.9 	"/>
	<path id="path3260" inkscape:connector-curvature="0" class="st6" d="M121.1-510.5L121.1-510.5c-0.7-1-1.4-1.9-2.1-2.5
		c-0.8-0.7-1.8-1.3-2.7-1.7c-0.3-0.1-0.6-0.2-0.7-0.3c-0.5-0.1-0.9-0.3-1.4-0.3c-2-0.3-3.6,0.1-5,1.2c-0.2,0.2-0.5,0.4-0.7,0.6
		c-0.4,0.3-0.7,0.7-0.9,1c-0.3,0.4-0.6,0.7-0.7,1.1c-0.3,0.4-0.5,0.8-0.7,1.3c-0.1,0.3-0.2,0.6-0.4,0.8c-0.6,1.6-0.8,3.5-0.8,5.6
		l0,0l0,0c0,3.7,0.8,7,2.6,9.7c1.8,2.7,4,4.4,6.8,4.9c3.3,0.7,5.9-0.3,7.7-2.9c0.2-0.3,0.5-0.7,0.7-1l0,0l0,0l0,0l-0.9-0.7l-3-2.5
		c-1.2,1.4-2.7,2-4.5,1.6c-1.4-0.3-2.5-1-3.5-2.1c-0.7-0.8-1.1-1.9-1.5-3.2c-0.1-0.5-0.2-0.9-0.3-1.4l1,0.2l13.9,2.4v-1.2l0,0
		C124-504,123-507.5,121.1-510.5L121.1-510.5z M110.3-505.9l-1.1-0.2c0.2-0.5,0.4-0.9,0.6-1.3c0.4-0.7,0.7-1.3,1.1-1.7
		c0.9-0.8,2.1-1.1,3.4-0.9c1.1,0.2,2.1,0.7,3.1,1.8c0.6,0.7,1.1,1.4,1.4,2.3c0.2,0.5,0.4,0.9,0.5,1.5l-1.1-0.2L110.3-505.9
		L110.3-505.9z"/>
	<path id="path3262" inkscape:connector-curvature="0" class="st6" d="M134.2-512.5c-1.3-0.2-2.4,0.3-3.3,1.3
		c-0.4,0.6-0.7,1.2-1.1,2v-2.7v-0.6l0,0l-4.2-0.6l0,0v25.8l0,0l4.9,1l0,0v-10.5l0,0v-1.3c0-0.2,0-0.5,0-0.7c0-3.2,0.3-5.3,0.8-6.5
		c0.6-1.1,1.1-1.7,2-1.6c0.1,0,0.3,0.1,0.5,0.1c0.3,0.1,0.7,0.4,1,0.7l0.4-1.3l0.8-2.9l0.4-1.3l0,0l0,0
		C135.6-512.1,134.9-512.4,134.2-512.5L134.2-512.5z"/>
	<polygon id="polygon3264" class="st6" points="137.9,-511.3 137.9,-511.3 137.9,-484.8 143.1,-483.8 143.1,-509.1 143.1,-510.6 
		143.1,-510.6 	"/>
	<path id="path3266" inkscape:connector-curvature="0" class="st7" d="M91.7-481.2c0-0.4-0.1-0.7-0.2-1.1c-0.6-2.4-2.1-4.3-3.7-4.7
		c-1.9-0.4-3.4,1.1-3.8,3.5c-0.1,0.4-0.1,0.7-0.1,1c0,0.1,0,0.2,0,0.3c0,0.6,0.1,1,0.2,1.6c0.1,0.4,0.2,0.7,0.3,1.1
		c0.1,0.4,0.3,0.7,0.5,1.1c0.7,1.5,1.8,2.5,3,2.9c1.2,0.3,2.4-0.3,3.1-1.4c0.3-0.4,0.5-0.8,0.7-1.4c0.1-0.3,0.2-0.7,0.2-1
		s0.1-0.7,0.1-1C91.7-480.5,91.7-480.9,91.7-481.2L91.7-481.2z"/>
	<path id="path3268" inkscape:connector-curvature="0" class="st7" d="M143.3-516.6c0,0,0-0.1,0-0.2c-0.1-0.4-0.2-0.7-0.3-1.1l0,0
		c-0.1-0.2-0.2-0.5-0.3-0.7s-0.2-0.3-0.3-0.4c-0.5-0.7-1.2-1-1.9-1.1c-0.8-0.1-1.7,0.3-2.1,1l0,0c-0.2,0.3-0.4,0.6-0.5,0.8
		c-0.2,0.4-0.2,0.9-0.2,1.4c0,0.1,0,0.3,0,0.4c0,0.1,0,0.1,0,0.2c0.1,0.7,0.3,1.2,0.6,1.7c0.6,0.9,1.3,1.6,2.2,1.8
		c1.2,0.2,2.3-0.7,2.7-2.1c0.1-0.4,0.2-0.7,0.2-1.2C143.3-516.2,143.3-516.4,143.3-516.6z"/>
	<path id="path3270" inkscape:connector-curvature="0" class="st5" d="M319.4-452.2c-0.6-0.7-23.2,6.7-50.7,16.7
		c-27.3,10-49.1,18.8-48.5,19.6c0.6,0.7,23.2-6.7,50.7-16.7C298.2-442.7,319.9-451.4,319.4-452.2z"/>
	<path id="path3272" inkscape:connector-curvature="0" class="st5" d="M132.5-466.8c-15.6-3.8-29.3-7.1-40.7-9.8
		c-0.2,0.5-0.5,0.9-0.7,1.2c-0.5,0.6-1,0.9-1.6,1.1c11.8,3.2,26.3,6.9,43,11.2c29.9,7.6,60.4,15.1,83.9,20.6v-3.2
		C193-451.7,162.4-459.5,132.5-466.8L132.5-466.8z"/>
	<path id="path3274" inkscape:connector-curvature="0" class="st5" d="M226.2-442.9c-0.7-0.2-1.1-0.4-2-0.6v1.2L226.2-442.9z"/>
	<path id="path3276" inkscape:connector-curvature="0" class="st5" d="M237.4-437.5c13,2.9,20.9,4.5,20.9,4s-7.1-2.6-18.9-5.9
		C239-438.5,238.3-437.8,237.4-437.5L237.4-437.5z"/>
	<path id="path3278" inkscape:connector-curvature="0" class="st6" d="M224.1-467.7c1.9-0.5,3.5-1.5,4.9-3c2.6-2.8,3.9-6.4,3.9-11
		c0-1.8-0.2-3.5-0.6-5.1c-2.3,0.7-4.7,1.4-7.1,2c0.1,0.6,0.1,1.2,0.1,1.8c0,2.1-0.5,3.8-1.4,5.2c0,0.2,0,0.5,0,0.7L224.1-467.7
		L224.1-467.7z"/>
	<path id="path3280" inkscape:connector-curvature="0" class="st6" d="M212-478.9c-0.6-0.8-0.9-1.8-1.3-2.7
		c-2.4,0.5-4.7,0.8-7.1,1.2v20l6.6,1.5v-14.6c1.7,2.4,4,4.1,6.3,5v-7C214.7-476,213.2-477.2,212-478.9z"/>
	<path id="path3282" inkscape:connector-curvature="0" class="st6" d="M244.9-469.7c-2.3-0.5-4.5-2.1-6.5-5l-4.8,4.6
		c2.6,4.2,6.3,6.8,10.8,7.7c0.7,0.2,1.5,0.3,2.1,0.3v-7.6C246.1-469.6,245.6-469.6,244.9-469.7L244.9-469.7z"/>
	<path id="path3284" inkscape:connector-curvature="0" class="st6" d="M256.1-470.6c0-2.5-0.7-4.9-2.2-6.9v13
		C255.4-465.9,256.1-467.9,256.1-470.6z"/>
	<path id="path3286" inkscape:connector-curvature="0" class="st6" d="M242.2-486.9l0.4-0.1c-0.2-0.4-0.4-0.7-0.4-0.9
		c0-1.4,0.9-1.9,2.8-1.6c0.8,0.1,1.7,0.6,2.6,1.2l7.7-2.1c-1.5-2.1-3.2-3.7-5.1-4.9c-0.8,0.7-1.8,1.4-2.6,2c-2.7,1.8-5.5,3-8.4,4.1
		c-1.4,0.6-2.8,1-4.2,1.5c0.4,2.4,1.8,4.9,4.2,7.1c-0.1-0.5-0.2-0.9-0.2-1.4C238.9-485,240.6-486.5,242.2-486.9z"/>
	<path id="path3288" inkscape:connector-curvature="0" class="st6" d="M243-478c-0.3,0.1-0.5,0.1-0.7,0.1l2.6,1.9
		c0.7,0.5,1.2,0.9,1.8,1.4v-4.3L243-478z"/>
	<path id="path3290" inkscape:connector-curvature="0" class="st8" d="M236.7-444.7c1-0.4,2.1,0.1,2.1,2.2s-0.9,3.2-2.1,3.5
		l-18.6,6.3V-476c0-1.9,0.6-3.2,2.1-3.5c1.5-0.4,2.1,0.5,2.1,2.4v37.1L236.7-444.7L236.7-444.7z"/>
	<path id="path3292" inkscape:connector-curvature="0" class="st8" d="M252.2-449.8l5.6-1.9c0.9-0.3,1.9,0.2,1.9,2.1
		s-0.9,3.1-1.9,3.4l-15.2,5.2c-1,0.4-2-0.1-2-2.1c0-2.1,0.9-3.2,2-3.5l5.8-1.9v-32.6l-5.8,1.6c-1,0.3-2-0.3-2-2.3s0.9-3.1,2-3.4
		l15.2-4c0.9-0.3,1.9,0.3,1.9,2.2c0,2-0.9,3-1.9,3.3l-5.6,1.5L252.2-449.8L252.2-449.8z"/>
	<path id="path3294" inkscape:connector-curvature="0" class="st8" d="M275.5-482.7v-8.6c0-1.7,0.5-2.8,1.8-3.2
		c1.2-0.4,1.8,0.5,1.8,2.2v8.4c0,0.7,0,1.5-0.2,2.1l-6.7,28.2c-0.4,1.5-0.7,2.6-1.8,3c-1.1,0.4-1.4-0.6-1.8-1.8l-7-24.5
		c-0.2-0.7-0.2-1.4-0.2-2.1v-8.7c0-1.8,0.6-2.9,1.9-3.3s1.9,0.5,1.9,2.2v8.8l5.3,19.2L275.5-482.7L275.5-482.7z"/>
	<path id="path3296" inkscape:connector-curvature="0" class="st8" d="M296.1-464.4c0.8-0.3,1.6,0.2,1.6,2.1s-0.7,2.8-1.6,3.1
		l-14.8,5v-41.3l14.8-3.9c0.8-0.2,1.6,0.3,1.6,2.1s-0.7,2.8-1.6,3l-11.4,3.1v12.6l4.9-1.5c0.8-0.3,1.7,0.3,1.7,2.1s-0.8,2.9-1.7,3.1
		l-4.9,1.5v12.6L296.1-464.4L296.1-464.4z"/>
	<path id="path3298" inkscape:connector-curvature="0" class="st8" d="M306.6-502.1c1.3-0.4,1.4,0.9,1.3,3.4l-0.6,17.5
		c-0.1,1.8-0.3,3.4-1.6,3.7c-1.3,0.4-1.5-1-1.6-2.7l-0.6-17.3c-0.1-2.4,0-3.7,1.4-4.1L306.6-502.1z M306.2-469.8
		c1.2-0.4,1.8,0.4,1.8,2.3v1.3c0,2-0.6,3.1-1.8,3.5l-0.8,0.3c-1.2,0.4-1.8-0.4-1.8-2.3v-1.3c0-2,0.6-3.1,1.8-3.5
		C305.4-469.5,306.2-469.8,306.2-469.8z"/>
</g>
</svg>
